<svg id="Capa_1" data-name="Capa 1" xmlns="http://www.w3.org/2000/svg" viewBox="0 0 1635.29 161.82"><g id="Layer_1" data-name="Layer 1"><path d="M875.62,56.72c4.6-9,12.6-16,25.7-16,13.6,0,20.7,6.6,23.3,16.7h1c4.6-8.5,12.1-16.7,25-16.7,15.6,0,24.8,8.2,24.8,23.8a58.05,58.05,0,0,1-1,9.2l-5.1,28.2c-.5,2.9-1.4,8,3.2,8a14.46,14.46,0,0,0,6.3-1.7l-2.4,16.7a66.27,66.27,0,0,1-16,2.6c-11.4,0-16.5-5.6-16.5-14.5a37,37,0,0,1,.7-6.8l5.6-32.5a46.49,46.49,0,0,0,.5-5.9c0-6-2.7-9.5-9.2-9.5-7.3,0-15.5,6.8-18.9,26.9l-7,40.6h-24.3l9.2-52a48.7,48.7,0,0,0,.7-5.9c0-6-2.5-9.5-9-9.5-7.3,0-15.6,6.8-19.2,26.9l-7.1,40.6h-24.5l10.5-60c.5-3.2.8-7.5-3.7-7.5a12.36,12.36,0,0,0-5.8,1.5l1.9-16.7a53.92,53.92,0,0,1,15.5-2.4c10.7,0,15.1,5.9,15.1,12.2,0,1-.2,2.5-.3,3.7Z" transform="translate(-0.03 -0.43)" style="fill:#fff"/><path d="M1029.12,40.72c25.2,0,37.2,13.8,37.2,33.7,0,30.8-15.8,53-46.2,53-25.3,0-37.1-13.6-37.1-33.3C983,63.32,998.32,40.72,1029.12,40.72Zm12.2,33.7c0-11-4.8-16.1-12.6-16.1-13.6,0-20.9,12.4-20.9,35.7,0,11,4.8,16,12.4,16C1033.52,109.92,1041.32,97.82,1041.32,74.42Z" transform="translate(-0.03 -0.43)" style="fill:#fff"/><path d="M1121.42,116c-4.4,4.2-12.4,11.4-26,11.4-13.3,0-25.7-9.5-25.7-33.5,0-38.2,22.1-53.2,39.9-53.2,11,0,17.5,4.8,20.6,9.5h.8l8.5-46.9H1164l-17.7,98.6c-.5,2.7-1.7,8,2.9,8a16.53,16.53,0,0,0,6.3-1.5l-2.4,16.5a63.83,63.83,0,0,1-16,2.6c-10,0-14.1-4.1-15-11.4l-.7-.1Zm7-50.3c-2.4-4.2-6.8-7.5-11.9-7.5-10.7,0-21.6,9.7-21.6,33.8,0,13.3,5.9,17.8,12.7,17.8,5.8,0,11-3.2,14.3-7.1Z" transform="translate(-0.03 -0.43)" style="fill:#fff"/><path d="M1207.92,40.72c21.4,0,34.2,11.4,34.2,27a55.45,55.45,0,0,1-3.9,19.2h-52.5a33.08,33.08,0,0,0-.8,8c0,10.5,4.4,15.5,12.8,15.5,8.7,0,16.3-3.9,16.3-13.4l22.4.3c0,20.6-18,30.1-39.3,30.1-24.6,0-36.2-12.6-36.2-32.3C1160.82,65.42,1175.12,40.72,1207.92,40.72Zm10.7,32.3a14.37,14.37,0,0,0,1-5.8c0-7.6-5.4-10.5-12.2-10.5-9.2,0-16.3,4.6-19.4,16.3Z" transform="translate(-0.03 -0.43)" style="fill:#fff"/><path d="M1278.12,81l-8.2,44.7h-24.4l10.5-60c.5-3.1.8-7.5-3.7-7.5a12.36,12.36,0,0,0-5.8,1.5l1.9-16.7a53.92,53.92,0,0,1,15.5-2.4c10.7,0,14.6,5.9,14.6,11.9a17.69,17.69,0,0,1-.5,4.1h1c4.2-8.2,11-16,23.3-16,12.9,0,18.7,8.7,18.7,18.7a37.37,37.37,0,0,1-4.6,18.5l-20.6-1.2c1.4-4.1,2.4-7.3,2.4-10.7,0-4.2-1.9-7.5-5.6-7.5C1287,58.62,1280.72,66,1278.12,81Z" transform="translate(-0.03 -0.43)" style="fill:#fff"/><path d="M1317.92,93.92c0-31.4,18.4-53.2,39.8-53.2,13.8,0,19.5,6.5,23,11.7h1l5.1-10h18.4l-10.5,59.5c-.5,2.5-1.7,8.2,2.9,8.2a15.73,15.73,0,0,0,6.3-1.7l-2.4,16.5a63.83,63.83,0,0,1-16,2.6c-10,0-14.1-4.1-15-11.4h-.8c-4.4,4.2-12.4,11.4-24.8,11.4C1330.72,127.42,1317.92,117.92,1317.92,93.92Zm58.7-28.2a12.22,12.22,0,0,0-11.4-7.5c-10.5,0-21.2,12.6-21.2,35,0,12.4,5.6,16.7,12.2,16.7,6,0,10.7-3.2,13.9-7.1Z" transform="translate(-0.03 -0.43)" style="fill:#fff"/><path d="M1424.52,57.52h-13.6l2.7-15.1h16.3l8.5-18.9h16.3l-3.2,18.9h25L1474,57.52h-25l-7,39.8c-1.2,6.5-.3,11,7.1,11,4.4,0,9.7-1.7,16-4.8l-2.4,19.5a63.52,63.52,0,0,1-22.4,4.2c-15.5,0-24-8.3-24-19.5a37.35,37.35,0,0,1,.9-8.3Z" transform="translate(-0.03 -0.43)" style="fill:#fff"/><path d="M1518.22,40.72c25.2,0,37.2,13.8,37.2,33.7,0,30.8-15.8,53-46.2,53-25.3,0-37.1-13.6-37.1-33.3C1472.12,63.32,1487.42,40.72,1518.22,40.72Zm12.2,33.7c0-11-4.8-16.1-12.6-16.1-13.6,0-20.9,12.4-20.9,35.7,0,11,4.8,16,12.4,16C1522.62,109.92,1530.42,97.82,1530.42,74.42Z" transform="translate(-0.03 -0.43)" style="fill:#fff"/><path d="M1592.52,81l-8.2,44.7h-24.5l10.5-60c.5-3.1.8-7.5-3.7-7.5a12.36,12.36,0,0,0-5.8,1.5l1.9-16.7a53.92,53.92,0,0,1,15.5-2.4c10.7,0,14.6,5.9,14.6,11.9a17.69,17.69,0,0,1-.5,4.1h1c4.2-8.2,11-16,23.3-16,12.9,0,18.7,8.7,18.7,18.7a37.37,37.37,0,0,1-4.6,18.5l-20.6-1.2c1.4-4.1,2.4-7.3,2.4-10.7,0-4.2-1.9-7.5-5.6-7.5C1601.32,58.62,1595,66,1592.52,81Z" transform="translate(-0.03 -0.43)" style="fill:#fff"/></g><path d="M49.1,129.54c0,20.35-9.22,32.71-29.93,32.71A70.36,70.36,0,0,1,0,159.81l2.44-17.22a51.35,51.35,0,0,0,12.18,1.74c5.57,0,9.4-4.35,9.4-15.66V40.45H49.1ZM24.05,5.48H49.28v21.4H24.05Z" transform="translate(-0.03 -0.43)" style="fill:#4254f4"/><path d="M60.76,71.77a37.77,37.77,0,0,1-.52-6.26c0-16.36,12.35-26.8,39.32-26.8,30.27,0,38.45,15,38.45,31v34.63c0,3.48,1.39,4.87,3.83,4.87a12.7,12.7,0,0,0,4.35-.7l1,16.71A50.25,50.25,0,0,1,133,127.45c-12.71,0-15.49-7.14-15.84-13.57h-1c-3,3.48-13.4,13.57-31.84,13.57-16.71,0-27.67-7.48-27.67-23,0-17.92,14.27-28.36,56.9-29.23V68.46c0-7.48-4.7-12.7-15.14-12.7S82.85,59.07,82.85,66.38a38.55,38.55,0,0,0,.35,4Zm31.66,38.45a29.06,29.06,0,0,0,21.06-9.39V88.3c-25.58.52-32.71,5.74-32.71,13C80.77,107.61,84.94,110.22,92.42,110.22Z" transform="translate(-0.03 -0.43)" style="fill:#4254f4"/><path d="M192.47,38.71c35.67,0,39.33,20.53,39.33,29.75a22.15,22.15,0,0,1-.35,4.53l-24.88.52a9.08,9.08,0,0,0,.35-3c0-5-2.79-13.92-15.14-13.92-11.66,0-18.62,6.61-18.62,26.62,0,17,6.26,26.28,18.62,26.28s15.14-8.7,15.14-13.92a8.64,8.64,0,0,0-.35-2.79l24.88.35a22.15,22.15,0,0,1,.35,4.53c0,8.52-3.66,29.75-39.33,29.75-29.92,0-44.89-16.18-44.89-44.2C147.58,59.07,161.16,38.71,192.47,38.71Z" transform="translate(-0.03 -0.43)" style="fill:#4254f4"/><path d="M239.8.43h25.06v75c12-8.17,26.27-21.57,34.62-35H326.8v3c-8.87,13.4-21.58,26.1-29.93,33.23,4.53,5.4,27,42.28,31.67,46.11v3h-27c-3.65-3.13-19.49-31.32-23.32-35.5-3.3,2.61-10.26,7.31-13.39,9.22v26.28H239.8Z" transform="translate(-0.03 -0.43)" style="fill:#4254f4"/><path d="M332.89.43H358v48h1c4.18-4.87,12.18-9.74,24-9.74,18.62,0,36.37,11.83,36.37,44.2,0,32-17.23,44.54-36.37,44.54-15.14,0-22.62-6.79-26.62-11.14h-1.05l-3.65,9.4H332.89ZM358,102.22a20,20,0,0,0,15.83,7.31c11.66,0,20-6.27,20-26.62,0-20.54-8.87-26.28-20-26.28A22.06,22.06,0,0,0,358,64.11Z" transform="translate(-0.03 -0.43)" style="fill:#4254f4"/><path d="M467.57,38.71c29.92,0,44.89,17.57,44.89,44.54,0,26.8-15,44.2-44.89,44.2-30.28,0-44.9-17.4-44.9-44.2C422.67,56.28,437.29,38.71,467.57,38.71Zm19.31,44.54c0-19.83-7.66-26.62-19.31-26.62-12,0-19.49,6.79-19.49,26.62,0,19.49,7.48,26.28,19.49,26.28C479.22,109.53,486.88,102.74,486.88,83.25Z" transform="translate(-0.03 -0.43)" style="fill:#4254f4"/><path d="M510.37,123.27l30.45-40.54L511.07,43.06V40.45h26.62l10.44,15.31a104.9,104.9,0,0,1,8.18,13.92h1.21a120.8,120.8,0,0,1,8.36-13.74l10.61-15.49h26.62v2.61L573,82l30.62,41.23v2.44H577l-11.83-17.58a133.94,133.94,0,0,1-7.66-13h-1.21a128.47,128.47,0,0,1-7.83,13.4L537,125.71H510.37Z" transform="translate(-0.03 -0.43)" style="fill:#4254f4"/><path d="M608.33,98.91h28.88v26.8H608.33Z" transform="translate(-0.03 -0.43)" style="fill:#4254f4"/><path d="M731.87,125.71h-19l-3.48-9.4h-1c-4,4.35-11.66,11.14-26.62,11.14-19.14,0-36.37-12.53-36.37-44.54,0-32.37,17.75-44.2,36.37-44.2,11.83,0,19.83,4.87,24,9.74h1V.43h25.06Zm-25.06-61.6a22.47,22.47,0,0,0-16-7.48c-11,0-19.83,5.74-19.83,26.28,0,20.35,8.35,26.62,19.83,26.62a20.07,20.07,0,0,0,16-7.31Z" transform="translate(-0.03 -0.43)" style="fill:#4254f4"/><path d="M784.59,38.71c26.1,0,40.89,13.75,40.89,32.89A126.2,126.2,0,0,1,824.43,86h-60c0,16.88,7.13,24,19.83,24,13,0,16.88-6.61,16.88-11.49V96.3l23.31.53a20.65,20.65,0,0,1,.35,3.13c0,9.74-5.57,27.49-40.71,27.49-29.06,0-44-16.18-44-44.37C740.05,58.2,753.62,38.71,784.59,38.71Zm17.75,33.06a11.81,11.81,0,0,0,.17-2.26c0-9.57-8.18-14.44-17.75-14.44-11.13,0-18.61,5-19.66,16.7Z" transform="translate(-0.03 -0.43)" style="fill:#4254f4"/></svg>