<svg id="Ebene_1" data-name="Ebene 1" xmlns="http://www.w3.org/2000/svg" viewBox="0 0 629.42 98.58"><path d="M35.2,3.43,75.85,14.77l24.5-6.54,13.5,1.7-2.2,78.14L84,96.57l-36.75-11-34.8,7.25L0,17.82,35.2,3.43" transform="translate(0 -0.68)" style="fill-rule:evenodd"/><path d="M106.7,36,83.15,46,37.3,33.38,11.3,42,8.5,18.9l29.3-9L75,20.77l31.75-7.59V36" transform="translate(0 -0.68)" style="fill:#333;fill-rule:evenodd"/><path d="M11.3,42l26-8.64L83.15,46,106.7,36V61.88L81.15,70.62,49.4,57.47l-35.15,9.2L11.3,42" transform="translate(0 -0.68)" style="fill:red;fill-rule:evenodd"/><path d="M14.25,66.67l35.15-9.2L81.15,70.62l25.55-8.74V84L81.6,89,45.2,78.4,16.65,86.48l-2.4-19.81" transform="translate(0 -0.68)" style="fill:#ff0;fill-rule:evenodd"/><path d="M148.82,79.33c0,12.4-5.62,19.93-18.23,19.93a43.09,43.09,0,0,1-11.66-1.48l1.48-10.5a31.36,31.36,0,0,0,7.42,1.06c3.4,0,5.73-2.65,5.73-9.54V25.06h15.26ZM133.56,3.75h15.37v13H133.56Z" transform="translate(0 -0.68)" style="fill:#fff"/><path d="M156.77,44.14a23.45,23.45,0,0,1-.32-3.82c0-10,7.53-16.32,24-16.32,18.44,0,23.42,9.11,23.42,18.87V64c0,2.12.85,3,2.34,3a7.89,7.89,0,0,0,2.65-.42l.63,10.17a30.55,30.55,0,0,1-8.69,1.38c-7.74,0-9.43-4.35-9.65-8.27h-.63c-1.8,2.12-8.16,8.27-19.4,8.27-10.18,0-16.85-4.56-16.85-14,0-10.92,8.69-17.28,34.66-17.81V42.12c0-4.55-2.86-7.73-9.22-7.73s-9.44,2-9.44,6.46a24.4,24.4,0,0,0,.21,2.44Zm19.29,23.43a17.71,17.71,0,0,0,12.83-5.73V54.21c-15.58.32-19.93,3.5-19.93,7.95C169,66,171.5,67.57,176.06,67.57Z" transform="translate(0 -0.68)" style="fill:#fff"/><path d="M237.86,24c21.73,0,24,12.51,24,18.12a13.06,13.06,0,0,1-.22,2.76l-15.15.32a5.61,5.61,0,0,0,.21-1.8c0-3.08-1.7-8.48-9.22-8.48-7.11,0-11.35,4-11.35,16.21,0,10.39,3.82,16,11.35,16s9.22-5.3,9.22-8.48a5.36,5.36,0,0,0-.21-1.7l15.15.22a13,13,0,0,1,.22,2.75c0,5.2-2.23,18.13-24,18.13-18.23,0-27.35-9.86-27.35-26.93C210.51,36.4,218.78,24,237.86,24Z" transform="translate(0 -0.68)" style="fill:#fff"/><path d="M267.54.68H282.8V46.37c7.32-5,16-13.15,21.1-21.31h16.64v1.8a106.75,106.75,0,0,1-18.23,20.25c2.75,3.28,16.43,25.76,19.29,28.09V77H305.17c-2.23-1.91-11.87-19.08-14.2-21.62-2,1.58-6.26,4.45-8.17,5.61V77H267.54Z" transform="translate(0 -0.68)" style="fill:#fff"/><path d="M325.1.68h15.26V29.93H341c2.54-3,7.42-5.93,14.62-5.93,11.35,0,22.16,7.21,22.16,26.92,0,19.51-10.5,27.14-22.16,27.14-9.22,0-13.78-4.13-16.21-6.78h-.64L336.54,77H325.1Zm15.26,62A12.16,12.16,0,0,0,350,67.14c7.1,0,12.19-3.81,12.19-16.22s-5.41-16-12.19-16a13.42,13.42,0,0,0-9.65,4.56Z" transform="translate(0 -0.68)" style="fill:#fff"/><path d="M408,24c18.23,0,27.35,10.71,27.35,27.13S426.22,78.06,408,78.06c-18.45,0-27.35-10.6-27.35-26.93S389.54,24,408,24Zm11.76,27.13c0-12.08-4.66-16.21-11.76-16.21-7.32,0-11.87,4.13-11.87,16.21,0,11.88,4.55,16,11.87,16C415.09,67.14,419.75,63,419.75,51.13Z" transform="translate(0 -0.68)" style="fill:#fff"/><path d="M434.91,75.52l18.55-24.7L435.33,26.65V25.06h16.22l6.36,9.33a62.79,62.79,0,0,1,5,8.48h.74a71.58,71.58,0,0,1,5.09-8.38l6.46-9.43h16.22v1.59L473.07,50.39l18.66,25.13V77H475.51L468.3,66.29a79.45,79.45,0,0,1-4.66-8h-.74a79.93,79.93,0,0,1-4.77,8.17l-7,10.49H434.91Z" transform="translate(0 -0.68)" style="fill:#fff"/><path d="M495.44,60.68H513V77H495.44Z" transform="translate(0 -0.68)" style="fill:#fff"/><path d="M571.55,77H560l-2.12-5.72h-.63c-2.44,2.65-7.11,6.78-16.22,6.78-11.66,0-22.16-7.63-22.16-27.14C518.86,31.21,529.67,24,541,24c7.2,0,12.08,3,14.63,5.93h.63V.68h15.27ZM556.28,39.48a13.65,13.65,0,0,0-9.75-4.56c-6.68,0-12.09,3.5-12.09,16s5.09,16.22,12.09,16.22a12.22,12.22,0,0,0,9.75-4.45Z" transform="translate(0 -0.68)" style="fill:#fff"/><path d="M604.51,24c15.9,0,24.91,8.37,24.91,20a77.65,77.65,0,0,1-.64,8.8H592.21c0,10.28,4.35,14.63,12.09,14.63,8,0,10.28-4,10.28-7V59.08l14.2.32a12.73,12.73,0,0,1,.22,1.91c0,5.94-3.4,16.75-24.81,16.75-17.7,0-26.82-9.86-26.82-27C577.37,35.87,585.64,24,604.51,24Zm10.81,20.14a6.79,6.79,0,0,0,.11-1.38c0-5.83-5-8.8-10.81-8.8-6.79,0-11.35,3.08-12,10.18Z" transform="translate(0 -0.68)" style="fill:#fff"/></svg>